solid untitled
facet normal -0.0 -1.80477854883065e-15 1.0
outer loop
vertex -12.5 49.9999999999998 150.0
vertex -75.5000000000002 49.9999999999998 150.0
vertex -62.4999999999999 -50.0000000000002 150.0
endloop
endfacet
facet normal -0.927179248489071 0.374617993656527 2.42477108808368e-16
outer loop
vertex 62.4999999999999 -50.0000000000003 150.0
vertex 42.5000000000002 -99.499984741211 -150.0
vertex 42.5000000000002 -99.4999847412112 150.0
endloop
endfacet
facet normal -3.52974162216105e-31 1.0 3.38395977905748e-16
outer loop
vertex -12.5 49.9999999999998 150.0
vertex -12.5 49.9999999999999 -150.0
vertex -75.5000000000002 49.9999999999998 150.0
endloop
endfacet
facet normal -2.40938581249599e-31 4.19715941588524e-15 1.0
outer loop
vertex 66.4999999999999 -142.499984741211 150.0
vertex -42.5000000000002 -99.499984741211 150.0
vertex -66.4999999999999 -142.499984741211 150.0
endloop
endfacet
facet normal -8.44671970701576e-16 1.91458590502186e-15 -1.0
outer loop
vertex 75.4999999999997 49.9999999999998 -150.0
vertex 66.4999999999999 -142.499984741211 -150.0
vertex 62.4999999999999 -50.0000000000002 -150.0
endloop
endfacet
facet normal -0.0 -0.0 1.0
outer loop
vertex 75.4999999999997 49.9999999999997 150.0
vertex 12.5000000000001 -50.0000000000003 150.0
vertex 62.4999999999999 -50.0000000000003 150.0
endloop
endfacet
facet normal 1.81953193121255e-15 1.79002571272126e-15 -1.0
outer loop
vertex 116.5 -92.5000000000003 -150.0
vertex 66.4999999999999 -142.499984741211 -150.0
vertex 75.4999999999997 49.9999999999998 -150.0
endloop
endfacet
facet normal 2.16798680883787e-14 1.01360430265864e-15 1.0
outer loop
vertex -62.4999999999999 -50.0000000000002 150.0
vertex -75.5000000000002 49.9999999999998 150.0
vertex -66.4999999999999 -142.499984741211 150.0
endloop
endfacet
facet normal 1.0 1.01518793371724e-15 3.50238612458932e-31
outer loop
vertex -12.5 49.9999999999999 -150.0
vertex -12.4999999999999 -50.0000000000001 150.0
vertex -12.4999999999999 -50.0 -150.0
endloop
endfacet
facet normal 0.0 -1.0 -3.19596201355428e-16
outer loop
vertex -12.4999999999999 -50.0000000000001 150.0
vertex -62.4999999999999 -50.0 -150.0
vertex -12.4999999999999 -50.0 -150.0
endloop
endfacet
facet normal 1.0 1.01518793371724e-15 3.15214751213039e-31
outer loop
vertex -12.5 49.9999999999999 -150.0
vertex -12.5 49.9999999999998 150.0
vertex -12.4999999999999 -50.0000000000001 150.0
endloop
endfacet
facet normal 3.7865925536837e-15 -1.77035510049351e-16 1.0
outer loop
vertex 116.5 -92.5000000000004 150.0
vertex 75.4999999999997 49.9999999999997 150.0
vertex 66.4999999999999 -142.499984741211 150.0
endloop
endfacet
facet normal 4.36213508803707e-15 1.76247936674831e-15 1.0
outer loop
vertex -42.5000000000002 -99.499984741211 150.0
vertex -62.4999999999999 -50.0000000000002 150.0
vertex -66.4999999999999 -142.499984741211 150.0
endloop
endfacet
facet normal 4.29709178293015e-15 -2.70716782324598e-15 1.0
outer loop
vertex 75.4999999999997 49.9999999999997 150.0
vertex 12.4999999999998 49.9999999999993 150.0
vertex 12.5000000000001 -50.0000000000003 150.0
endloop
endfacet
facet normal -5.95650726520227e-15 1.71380209033889e-15 -1.0
outer loop
vertex -66.4999999999999 -142.499984741211 -150.0
vertex -116.5 -92.5 -150.0
vertex -75.5000000000002 49.9999999999999 -150.0
endloop
endfacet
facet normal 0.927179248489071 0.374617993656528 2.56466172778083e-16
outer loop
vertex -62.4999999999999 -50.0 -150.0
vertex -62.4999999999999 -50.0000000000002 150.0
vertex -42.5000000000002 -99.499984741211 150.0
endloop
endfacet
facet normal 1.0 -0.0 -0.0
outer loop
vertex 116.5 9.49999999999966 -150.0
vertex 116.5 -92.5000000000004 150.0
vertex 116.5 -92.5000000000003 -150.0
endloop
endfacet
facet normal 2.39323238127727e-14 3.11120209566053e-15 -1.0
outer loop
vertex -62.4999999999999 -50.0 -150.0
vertex -66.4999999999999 -142.499984741211 -150.0
vertex -75.5000000000002 49.9999999999999 -150.0
endloop
endfacet
facet normal -4.40189889958693e-15 0.0 -1.0
outer loop
vertex 116.5 -92.5000000000003 -150.0
vertex 75.4999999999997 49.9999999999998 -150.0
vertex 116.5 9.49999999999966 -150.0
endloop
endfacet
facet normal -3.60955709766131e-15 -3.94018439016299e-30 1.0
outer loop
vertex -12.4999999999999 -50.0000000000001 150.0
vertex -12.5 49.9999999999998 150.0
vertex -62.4999999999999 -50.0000000000002 150.0
endloop
endfacet
facet normal 1.74781279836541e-15 -1.7693907341477e-15 1.0
outer loop
vertex -75.5000000000002 49.9999999999998 150.0
vertex -116.5 9.49999999999994 150.0
vertex -116.5 -92.5000000000001 150.0
endloop
endfacet
facet normal -0.0 -0.0 1.0
outer loop
vertex 75.4999999999997 49.9999999999997 150.0
vertex 62.4999999999999 -50.0000000000003 150.0
vertex 66.4999999999999 -142.499984741211 150.0
endloop
endfacet
facet normal 0.927179248489071 0.374617993656527 1.11912511757708e-16
outer loop
vertex -62.4999999999999 -50.0 -150.0
vertex -42.5000000000002 -99.499984741211 150.0
vertex -42.5000000000002 -99.4999847412109 -150.0
endloop
endfacet
facet normal 0.0 0.0 -1.0
outer loop
vertex 75.4999999999997 49.9999999999998 -150.0
vertex 12.5000000000001 -50.0 -150.0
vertex 12.4999999999998 49.9999999999995 -150.0
endloop
endfacet
facet normal 2.12326888097724e-15 5.38223972154694e-15 -1.0
outer loop
vertex 66.4999999999999 -142.499984741211 -150.0
vertex -42.5000000000002 -99.4999847412109 -150.0
vertex 42.5000000000002 -99.499984741211 -150.0
endloop
endfacet
facet normal -3.60955709766131e-15 2.27402097152662e-15 -1.0
outer loop
vertex 75.4999999999997 49.9999999999998 -150.0
vertex 62.4999999999999 -50.0000000000002 -150.0
vertex 12.5000000000001 -50.0 -150.0
endloop
endfacet
facet normal -4.36213508803707e-15 1.76247936674831e-15 -1.0
outer loop
vertex 66.4999999999999 -142.499984741211 -150.0
vertex 42.5000000000002 -99.499984741211 -150.0
vertex 62.4999999999999 -50.0000000000002 -150.0
endloop
endfacet
facet normal -3.78659255368371e-15 -1.77035510049361e-16 1.0
outer loop
vertex -66.4999999999999 -142.499984741211 150.0
vertex -75.5000000000002 49.9999999999998 150.0
vertex -116.5 -92.5000000000001 150.0
endloop
endfacet
facet normal 1.19433874554969e-15 1.0 3.38395977905748e-16
outer loop
vertex -42.5000000000002 -99.499984741211 150.0
vertex 42.5000000000002 -99.499984741211 -150.0
vertex -42.5000000000002 -99.4999847412109 -150.0
endloop
endfacet
facet normal -2.12326888097723e-15 -1.1850803056617e-15 1.0
outer loop
vertex 66.4999999999999 -142.499984741211 150.0
vertex 42.5000000000002 -99.4999847412112 150.0
vertex -42.5000000000002 -99.499984741211 150.0
endloop
endfacet
facet normal 1.52659839656728e-15 3.8697494238566e-15 -1.0
outer loop
vertex 66.4999999999999 -142.499984741211 -150.0
vertex -66.4999999999999 -142.499984741211 -150.0
vertex -42.5000000000002 -99.4999847412109 -150.0
endloop
endfacet
facet normal -0.0 -0.0 1.0
outer loop
vertex 66.4999999999999 -142.499984741211 150.0
vertex 62.4999999999999 -50.0000000000003 150.0
vertex 42.5000000000002 -99.4999847412112 150.0
endloop
endfacet
facet normal 6.30429502426078e-31 1.80477854883066e-15 -1.0
outer loop
vertex -12.4999999999999 -50.0 -150.0
vertex -62.4999999999999 -50.0 -150.0
vertex -12.5 49.9999999999999 -150.0
endloop
endfacet
facet normal -0.927179248489071 0.374617993656528 1.3056459705066e-16
outer loop
vertex 62.4999999999999 -50.0000000000002 -150.0
vertex 42.5000000000002 -99.499984741211 -150.0
vertex 62.4999999999999 -50.0000000000003 150.0
endloop
endfacet
facet normal 1.11807133553278e-15 4.09776452768981e-15 -1.0
outer loop
vertex -42.5000000000002 -99.4999847412109 -150.0
vertex -66.4999999999999 -142.499984741211 -150.0
vertex -62.4999999999999 -50.0 -150.0
endloop
endfacet
facet normal 2.25597318603831e-15 1.0 6.39192402710857e-16
outer loop
vertex 42.5000000000002 -99.4999847412112 150.0
vertex 42.5000000000002 -99.499984741211 -150.0
vertex -42.5000000000002 -99.499984741211 150.0
endloop
endfacet
facet normal 0.0 -1.0 -9.96388157166925e-16
outer loop
vertex 12.5000000000001 -50.0000000000003 150.0
vertex 12.5000000000001 -50.0 -150.0
vertex 62.4999999999999 -50.0000000000003 150.0
endloop
endfacet
facet normal -1.0 -2.9609648066753e-15 -2.80190889967148e-30
outer loop
vertex 12.4999999999998 49.9999999999993 150.0
vertex 12.5000000000001 -50.0 -150.0
vertex 12.5000000000001 -50.0000000000003 150.0
endloop
endfacet
facet normal 0.702755477796653 0.7114314713497 2.92056727845474e-16
outer loop
vertex 116.5 9.49999999999953 150.0
vertex 116.5 9.49999999999966 -150.0
vertex 75.4999999999997 49.9999999999997 150.0
endloop
endfacet
facet normal -4.74470551031869e-15 1.0 6.57992179261176e-16
outer loop
vertex 12.4999999999998 49.9999999999993 150.0
vertex 75.4999999999997 49.9999999999998 -150.0
vertex 12.4999999999998 49.9999999999995 -150.0
endloop
endfacet
facet normal -6.26659218343978e-15 1.0 3.38395977905748e-16
outer loop
vertex 12.4999999999998 49.9999999999993 150.0
vertex 75.4999999999997 49.9999999999997 150.0
vertex 75.4999999999997 49.9999999999998 -150.0
endloop
endfacet
facet normal 2.03037586743449e-15 -1.0 -6.57992179261177e-16
outer loop
vertex -12.4999999999999 -50.0000000000001 150.0
vertex -62.4999999999999 -50.0000000000002 150.0
vertex -62.4999999999999 -50.0 -150.0
endloop
endfacet
facet normal -1.0 -2.96096480667531e-15 -1.96133622977004e-30
outer loop
vertex 12.4999999999998 49.9999999999995 -150.0
vertex 12.5000000000001 -50.0 -150.0
vertex 12.4999999999998 49.9999999999993 150.0
endloop
endfacet
facet normal 0.702755477796652 0.7114314713497 2.39903740730212e-16
outer loop
vertex 75.4999999999997 49.9999999999997 150.0
vertex 116.5 9.49999999999966 -150.0
vertex 75.4999999999997 49.9999999999998 -150.0
endloop
endfacet
facet normal -3.94795307556708e-15 -1.0 -3.38395977905747e-16
outer loop
vertex 62.4999999999999 -50.0000000000003 150.0
vertex 12.5000000000001 -50.0 -150.0
vertex 62.4999999999999 -50.0000000000002 -150.0
endloop
endfacet
facet normal 0.707106673290588 -0.70710688908249 -2.64894219099826e-16
outer loop
vertex 116.5 -92.5000000000004 150.0
vertex 66.4999999999999 -142.499984741211 -150.0
vertex 116.5 -92.5000000000003 -150.0
endloop
endfacet
facet normal -1.0 0.0 0.0
outer loop
vertex -116.5 9.49999999999994 150.0
vertex -116.5 -92.5 -150.0
vertex -116.5 -92.5000000000001 150.0
endloop
endfacet
facet normal 0.707106673290588 -0.707106889082491 1.3941801005254e-17
outer loop
vertex 66.4999999999999 -142.499984741211 150.0
vertex 66.4999999999999 -142.499984741211 -150.0
vertex 116.5 -92.5000000000004 150.0
endloop
endfacet
facet normal -0.70710667329059 -0.707106889082488 -1.39418010052539e-17
outer loop
vertex -66.4999999999999 -142.499984741211 150.0
vertex -116.5 -92.5 -150.0
vertex -66.4999999999999 -142.499984741211 -150.0
endloop
endfacet
facet normal 0.0 -1.0 0.0
outer loop
vertex 66.4999999999999 -142.499984741211 150.0
vertex -66.4999999999999 -142.499984741211 -150.0
vertex 66.4999999999999 -142.499984741211 -150.0
endloop
endfacet
facet normal 0.0 0.0 -1.0
outer loop
vertex -75.5000000000002 49.9999999999999 -150.0
vertex -116.5 -92.5 -150.0
vertex -116.5 9.5000000000001 -150.0
endloop
endfacet
facet normal 2.86472785528675e-15 3.72414621187286e-16 -1.0
outer loop
vertex -12.5 49.9999999999999 -150.0
vertex -62.4999999999999 -50.0 -150.0
vertex -75.5000000000002 49.9999999999999 -150.0
endloop
endfacet
facet normal 0.0 -1.0 0.0
outer loop
vertex -66.4999999999999 -142.499984741211 150.0
vertex -66.4999999999999 -142.499984741211 -150.0
vertex 66.4999999999999 -142.499984741211 150.0
endloop
endfacet
facet normal -0.70710667329059 -0.707106889082489 -2.64894219099826e-16
outer loop
vertex -66.4999999999999 -142.499984741211 150.0
vertex -116.5 -92.5000000000001 150.0
vertex -116.5 -92.5 -150.0
endloop
endfacet
facet normal 1.0 -0.0 -0.0
outer loop
vertex 116.5 9.49999999999966 -150.0
vertex 116.5 9.49999999999953 150.0
vertex 116.5 -92.5000000000004 150.0
endloop
endfacet
facet normal -0.702755477796654 0.711431471349698 2.60764935576322e-16
outer loop
vertex -75.5000000000002 49.9999999999998 150.0
vertex -75.5000000000002 49.9999999999999 -150.0
vertex -116.5 9.49999999999994 150.0
endloop
endfacet
facet normal -0.702755477796653 0.711431471349699 3.75501507229904e-16
outer loop
vertex -116.5 9.49999999999994 150.0
vertex -75.5000000000002 49.9999999999999 -150.0
vertex -116.5 9.5000000000001 -150.0
endloop
endfacet
facet normal -1.09723803452939e-14 -4.42347683536925e-15 1.0
outer loop
vertex 116.5 9.49999999999953 150.0
vertex 75.4999999999997 49.9999999999997 150.0
vertex 116.5 -92.5000000000004 150.0
endloop
endfacet
facet normal -7.05948324432209e-31 1.0 3.38395977905748e-16
outer loop
vertex -75.5000000000002 49.9999999999998 150.0
vertex -12.5 49.9999999999999 -150.0
vertex -75.5000000000002 49.9999999999999 -150.0
endloop
endfacet
facet normal -1.0 0.0 0.0
outer loop
vertex -116.5 9.5000000000001 -150.0
vertex -116.5 -92.5 -150.0
vertex -116.5 9.49999999999994 150.0
endloop
endfacet
endsolid untitled
