solid untitled
facet normal 1.0 4.91406216460236e-30 -2.4171141278982e-15
outer loop
vertex -13.4999999999999 50.0 9.58788604066285e-14
vertex -13.5 -100.0 -14.0000000000002
vertex -13.5 50.0 -13.9999999999999
endloop
endfacet
facet normal 1.0 1.25643634890407e-29 -2.41711412789835e-15
outer loop
vertex -13.4999999999999 50.0 9.58788604066285e-14
vertex -13.4999999999999 40.0 7.89590615113411e-14
vertex -13.5 -100.0 -14.0000000000002
endloop
endfacet
facet normal 1.0 -1.20855706394908e-16 -1.2085570639491e-15
outer loop
vertex -13.4999999999999 40.0 7.89590615113411e-14
vertex -13.4999999999999 -100.0 13.9999999999998
vertex -13.5 -100.0 -14.0000000000002
endloop
endfacet
facet normal 1.0 8.05704709299386e-17 8.057047092994e-16
outer loop
vertex -13.5 40.0 14.0000000000001
vertex -13.4999999999999 -100.0 13.9999999999998
vertex -13.4999999999999 40.0 7.89590615113411e-14
endloop
endfacet
facet normal 5.4832681605098e-16 -1.69197988952873e-15 1.0
outer loop
vertex -13.4999999999999 50.0 9.58788604066285e-14
vertex -85.4999999999999 40.0 1.18438592267012e-13
vertex -13.4999999999999 40.0 7.89590615113411e-14
endloop
endfacet
facet normal 9.09666607273517e-16 -4.29362638633099e-15 1.0
outer loop
vertex -13.4999999999999 50.0 9.58788604066285e-14
vertex -75.4999999999999 50.0 1.52278190057586e-13
vertex -85.4999999999999 40.0 1.18438592267012e-13
endloop
endfacet
facet normal -0.707106781186547 0.707106781186548 2.97527811920328e-15
outer loop
vertex -75.4999999999999 50.0 1.52278190057586e-13
vertex -75.5 50.0 -13.9999999999999
vertex -116.5 9.00000000000003 -14.0
endloop
endfacet
facet normal -0.707106781186551 0.707106781186544 3.00086551102847e-14
outer loop
vertex -75.4999999999999 50.0 1.52278190057586e-13
vertex -116.5 9.00000000000003 -14.0
vertex -85.4999999999999 40.0 1.18438592267012e-13
endloop
endfacet
facet normal -0.707106781186545 0.70710678118655 1.04088293826862e-15
outer loop
vertex -85.4999999999999 40.0 14.0000000000001
vertex -85.4999999999999 40.0 1.18438592267012e-13
vertex -116.5 9.00000000000003 -14.0
endloop
endfacet
facet normal -0.707106781186547 0.707106781186548 5.20441469134313e-15
outer loop
vertex -85.4999999999999 40.0 14.0000000000001
vertex -116.5 9.00000000000003 -14.0
vertex -116.5 8.99999999999996 14.0000000000001
endloop
endfacet
facet normal 0.707106781186548 0.707106781186547 1.19011124768133e-15
outer loop
vertex 75.5 50.0 -13.9999999999999
vertex 75.5 50.0 6.48592290986016e-14
vertex 116.5 9.00000000000003 -14.0000000000001
endloop
endfacet
facet normal 0.707106781186546 0.707106781186549 -1.00028850367616e-14
outer loop
vertex 75.5 50.0 6.48592290986016e-14
vertex 85.5 40.0 2.25597318603832e-14
vertex 116.5 9.00000000000003 -14.0000000000001
endloop
endfacet
facet normal 0.707106781186547 0.707106781186547 -5.81418855599475e-16
outer loop
vertex 85.5 40.0 2.25597318603832e-14
vertex 116.5 8.99999999999996 14.0
vertex 116.5 9.00000000000003 -14.0000000000001
endloop
endfacet
facet normal 0.707106781186547 0.707106781186548 7.80662203701475e-16
outer loop
vertex 85.5 40.0 14.0
vertex 116.5 8.99999999999996 14.0
vertex 85.5 40.0 2.25597318603832e-14
endloop
endfacet
facet normal -6.78488176252127e-16 -1.0 5.68233975421567e-31
outer loop
vertex -66.4999999999999 -143.0 13.9999999999998
vertex 66.5 -143.0 -14.0000000000003
vertex 66.5 -143.0 13.9999999999997
endloop
endfacet
facet normal 1.34955569162621e-30 -1.0 3.22281883719759e-15
outer loop
vertex -66.4999999999999 -143.0 13.9999999999998
vertex -66.5 -143.0 -14.0000000000003
vertex 66.5 -143.0 -14.0000000000003
endloop
endfacet
facet normal 0.707106781186548 -0.707106781186547 1.10031735404377e-15
outer loop
vertex 116.5 -93.0000000000001 13.9999999999997
vertex 66.5 -143.0 13.9999999999997
vertex 116.5 -93.0000000000001 -14.0000000000003
endloop
endfacet
facet normal 0.707106781186547 -0.707106781186548 -1.20034620441139e-15
outer loop
vertex 66.5 -143.0 13.9999999999997
vertex 66.5 -143.0 -14.0000000000003
vertex 116.5 -93.0000000000001 -14.0000000000003
endloop
endfacet
facet normal -0.707106781186546 -0.707106781186549 5.60161562058644e-15
outer loop
vertex -116.5 -93.0000000000001 13.9999999999999
vertex -66.5 -143.0 -14.0000000000003
vertex -66.4999999999999 -143.0 13.9999999999998
endloop
endfacet
facet normal -0.707106781186548 -0.707106781186547 -1.00028850367615e-15
outer loop
vertex -116.5 -93.0 -14.0000000000001
vertex -66.5 -143.0 -14.0000000000003
vertex -116.5 -93.0000000000001 13.9999999999999
endloop
endfacet
facet normal -1.0 -1.50398212402553e-16 -8.05704709299399e-16
outer loop
vertex 13.5 50.0 -13.9999999999999
vertex 13.5 -100.0 -14.0000000000002
vertex 13.5 -100.0 13.9999999999998
endloop
endfacet
facet normal -1.0 0.0 0.0
outer loop
vertex 13.5 50.0 -13.9999999999999
vertex 13.5 -100.0 13.9999999999998
vertex 13.5 40.0 9.58788604066285e-14
endloop
endfacet
facet normal -1.0 0.0 0.0
outer loop
vertex 13.5 40.0 9.58788604066285e-14
vertex 13.5 -100.0 13.9999999999998
vertex 13.5 40.0 14.0000000000001
endloop
endfacet
facet normal -1.0 1.12798659301916e-15 8.057047092994e-16
outer loop
vertex 13.5 50.0 -13.9999999999999
vertex 13.5 40.0 9.58788604066285e-14
vertex 13.5 50.0 1.18438592267012e-13
endloop
endfacet
facet normal -1.0 -8.84695367073852e-16 1.6114094185988e-15
outer loop
vertex -116.5 9.00000000000003 -14.0
vertex -116.5 -93.0 -14.0000000000001
vertex -116.5 -93.0000000000001 13.9999999999999
endloop
endfacet
facet normal -1.0 -7.36664910449291e-30 4.83422825579638e-15
outer loop
vertex -116.5 9.00000000000003 -14.0
vertex -116.5 -93.0000000000001 13.9999999999999
vertex -116.5 8.99999999999996 14.0000000000001
endloop
endfacet
facet normal 1.0 8.84695367073854e-16 -3.22281883719759e-15
outer loop
vertex 116.5 9.00000000000003 -14.0000000000001
vertex 116.5 8.99999999999996 14.0
vertex 116.5 -93.0000000000001 -14.0000000000003
endloop
endfacet
facet normal 1.0 -4.42347683536928e-16 1.6114094185988e-15
outer loop
vertex 116.5 8.99999999999996 14.0
vertex 116.5 -93.0000000000001 13.9999999999997
vertex 116.5 -93.0000000000001 -14.0000000000003
endloop
endfacet
facet normal 1.01832122980896e-15 -3.21162849401288e-15 1.0
outer loop
vertex 85.5 40.0 2.25597318603832e-14
vertex 75.5 50.0 6.48592290986016e-14
vertex 13.5 40.0 9.58788604066285e-14
endloop
endfacet
facet normal 8.64183276909839e-16 -2.25597318603832e-15 1.0
outer loop
vertex 75.5 50.0 6.48592290986016e-14
vertex 13.5 50.0 1.18438592267012e-13
vertex 13.5 40.0 9.58788604066285e-14
endloop
endfacet
facet normal -3.8164959914182e-16 3.45350481712332e-15 -1.0
outer loop
vertex 66.5 -143.0 -14.0000000000003
vertex -66.5 -143.0 -14.0000000000003
vertex -116.5 -93.0 -14.0000000000001
endloop
endfacet
facet normal -1.0189488608431e-15 1.12098951929663e-15 -1.0
outer loop
vertex 66.5 -143.0 -14.0000000000003
vertex -116.5 -93.0 -14.0000000000001
vertex -13.5 -100.0 -14.0000000000002
endloop
endfacet
facet normal -9.5714590514441e-16 2.03037586743448e-15 -1.0
outer loop
vertex -13.5 -100.0 -14.0000000000002
vertex -116.5 -93.0 -14.0000000000001
vertex -13.5 50.0 -13.9999999999999
endloop
endfacet
facet normal 4.79925763449042e-16 9.95282287958082e-16 -1.0
outer loop
vertex -13.5 50.0 -13.9999999999999
vertex -116.5 -93.0 -14.0000000000001
vertex -116.5 9.00000000000003 -14.0
endloop
endfacet
facet normal 5.45799964364109e-16 8.29793441756815e-16 -1.0
outer loop
vertex -13.5 50.0 -13.9999999999999
vertex -116.5 9.00000000000003 -14.0
vertex -75.5 50.0 -13.9999999999999
endloop
endfacet
facet normal -5.76918142887925e-16 2.04330071381283e-15 -1.0
outer loop
vertex 116.5 -93.0000000000001 -14.0000000000003
vertex 66.5 -143.0 -14.0000000000003
vertex 13.5 -100.0 -14.0000000000002
endloop
endfacet
facet normal -4.17772812229316e-16 2.23945658648507e-15 -1.0
outer loop
vertex 66.5 -143.0 -14.0000000000003
vertex -13.5 -100.0 -14.0000000000002
vertex 13.5 -100.0 -14.0000000000002
endloop
endfacet
facet normal -5.76039755269979e-16 2.03037586743448e-15 -1.0
outer loop
vertex 116.5 -93.0000000000001 -14.0000000000003
vertex 13.5 -100.0 -14.0000000000002
vertex 13.5 50.0 -13.9999999999999
endloop
endfacet
facet normal -1.39897823215683e-15 1.437629971495e-15 -1.0
outer loop
vertex 116.5 -93.0000000000001 -14.0000000000003
vertex 13.5 50.0 -13.9999999999999
vertex 116.5 9.00000000000003 -14.0000000000001
endloop
endfacet
facet normal -7.27733285818813e-16 3.12392825131978e-15 -1.0
outer loop
vertex 116.5 9.00000000000003 -14.0000000000001
vertex 13.5 50.0 -13.9999999999999
vertex 75.5 50.0 -13.9999999999999
endloop
endfacet
facet normal -0.0 1.0 -0.0
outer loop
vertex 13.5 -100.0 13.9999999999998
vertex 13.5 -100.0 -14.0000000000002
vertex -13.5 -100.0 -14.0000000000002
endloop
endfacet
facet normal 3.34218249783455e-15 1.0 -3.2228188371976e-15
outer loop
vertex -13.4999999999999 -100.0 13.9999999999998
vertex 13.5 -100.0 13.9999999999998
vertex -13.5 -100.0 -14.0000000000002
endloop
endfacet
facet normal 8.69312975823036e-16 -1.82810157988932e-15 1.0
outer loop
vertex 116.5 -93.0000000000001 13.9999999999997
vertex -66.4999999999999 -143.0 13.9999999999998
vertex 66.5 -143.0 13.9999999999997
endloop
endfacet
facet normal 8.25071609781397e-16 -1.66617818017692e-15 1.0
outer loop
vertex 116.5 -93.0000000000001 13.9999999999997
vertex 13.5 -100.0 13.9999999999998
vertex -66.4999999999999 -143.0 13.9999999999998
endloop
endfacet
facet normal 8.3640753438678e-16 -1.83297821365613e-15 1.0
outer loop
vertex 116.5 -93.0000000000001 13.9999999999997
vertex 13.5 40.0 14.0000000000001
vertex 13.5 -100.0 13.9999999999998
endloop
endfacet
facet normal 4.90125527996616e-16 -2.10115149680039e-15 1.0
outer loop
vertex 116.5 8.99999999999996 14.0
vertex 13.5 40.0 14.0000000000001
vertex 116.5 -93.0000000000001 13.9999999999997
endloop
endfacet
facet normal 7.04991620636974e-16 -1.38724157609211e-15 1.0
outer loop
vertex 116.5 8.99999999999996 14.0
vertex 85.5 40.0 14.0
vertex 13.5 40.0 14.0000000000001
endloop
endfacet
facet normal 9.14139134759278e-16 -1.45463271058096e-15 1.0
outer loop
vertex -13.4999999999999 -100.0 13.9999999999998
vertex -116.5 -93.0000000000001 13.9999999999999
vertex -66.4999999999999 -143.0 13.9999999999998
endloop
endfacet
facet normal 3.13329609171987e-16 -7.14100039508252e-16 1.0
outer loop
vertex 13.5 -100.0 13.9999999999998
vertex -13.4999999999999 -100.0 13.9999999999998
vertex -66.4999999999999 -143.0 13.9999999999998
endloop
endfacet
facet normal 8.98008743957001e-16 -1.69197988952874e-15 1.0
outer loop
vertex -13.4999999999999 -100.0 13.9999999999998
vertex -13.5 40.0 14.0000000000001
vertex -116.5 -93.0000000000001 13.9999999999999
endloop
endfacet
facet normal 7.12373029191142e-16 -1.54821689237924e-15 1.0
outer loop
vertex -13.5 40.0 14.0000000000001
vertex -116.5 8.99999999999996 14.0000000000001
vertex -116.5 -93.0000000000001 13.9999999999999
endloop
endfacet
facet normal 9.79155028662466e-16 -2.43462160030009e-15 1.0
outer loop
vertex -13.5 40.0 14.0000000000001
vertex -85.4999999999999 40.0 14.0000000000001
vertex -116.5 8.99999999999996 14.0000000000001
endloop
endfacet
facet normal 3.13329609171991e-16 1.0 1.6114094185988e-15
outer loop
vertex 85.5 40.0 14.0
vertex 85.5 40.0 2.25597318603832e-14
vertex 13.5 40.0 9.58788604066285e-14
endloop
endfacet
facet normal 6.26659218343978e-16 1.0 4.84736245719142e-31
outer loop
vertex 13.5 40.0 14.0000000000001
vertex 85.5 40.0 14.0
vertex 13.5 40.0 9.58788604066285e-14
endloop
endfacet
facet normal 3.63866642909407e-16 1.0 1.6114094185988e-15
outer loop
vertex 75.5 50.0 6.48592290986016e-14
vertex 75.5 50.0 -13.9999999999999
vertex 13.5 50.0 -13.9999999999999
endloop
endfacet
facet normal 3.63866642909408e-16 1.0 1.6114094185988e-15
outer loop
vertex 13.5 50.0 1.18438592267012e-13
vertex 75.5 50.0 6.48592290986016e-14
vertex 13.5 50.0 -13.9999999999999
endloop
endfacet
facet normal -0.0 1.0 -0.0
outer loop
vertex -13.4999999999999 50.0 9.58788604066285e-14
vertex -13.5 50.0 -13.9999999999999
vertex -75.5 50.0 -13.9999999999999
endloop
endfacet
facet normal -3.63866642909405e-16 1.0 1.61140941859879e-15
outer loop
vertex -75.4999999999999 50.0 1.52278190057586e-13
vertex -13.4999999999999 50.0 9.58788604066285e-14
vertex -75.5 50.0 -13.9999999999999
endloop
endfacet
facet normal -0.0 1.0 -0.0
outer loop
vertex -13.5 40.0 14.0000000000001
vertex -13.4999999999999 40.0 7.89590615113411e-14
vertex -85.4999999999999 40.0 1.18438592267012e-13
endloop
endfacet
facet normal -3.13329609171987e-16 1.0 1.6114094185988e-15
outer loop
vertex -85.4999999999999 40.0 14.0000000000001
vertex -13.5 40.0 14.0000000000001
vertex -85.4999999999999 40.0 1.18438592267012e-13
endloop
endfacet
endsolid untitled
